<?xml version="1.0" encoding="UTF-8"?>
<svg width="1648px" height="899px" viewBox="0 0 1648 899" version="1.1" xmlns="http://www.w3.org/2000/svg" xmlns:xlink="http://www.w3.org/1999/xlink">
    <title>Artboard</title>
    <g id="Artboard" stroke="none" stroke-width="1" fill="none" fill-rule="evenodd">
        <rect fill="#1D0441" x="0" y="0" width="1648" height="899"></rect>
        <g id="coolbackgrounds-topography-palms" transform="translate(0.1162, -0.2)" fill-rule="nonzero">
            <path d="M528.450779,153.572 C499.758779,215.296 505.184779,253.994 544.725779,269.666 C604.038779,293.174 745.072779,302.577 804.024779,353.572 C862.974779,404.566 1042.72178,365.144 1073.46278,277.622 C1104.20378,190.1 1159.55278,55.2 867.691779,55.2 C673.115779,55.2 560.037779,87.99 528.451779,153.572 L528.450779,153.572 Z" id="Path" fill="#FFFA72"></path>
            <path d="M50.6713794,275.4416 C-29.6662206,448.2688 -14.4734206,556.6232 96.2413794,600.5048 C262.317779,666.3272 657.212979,692.6556 822.278579,835.4416 C987.338579,978.2248 1490.63018,867.8432 1576.70498,622.7816 C1662.77978,377.72 1817.75698,0 1000.54618,0 C455.733379,0 139.114979,91.812 50.6741794,275.4416 L50.6713794,275.4416 Z" id="Path" fill="#2E0569"></path>
            <path d="M90.4863294,265.2858 C14.4525294,428.8544 28.8314294,531.4041 133.615079,572.9349 C290.794529,635.2311 664.534629,660.14905 820.757429,795.2858 C976.974929,930.4199 1453.30448,825.9516 1534.76813,594.0183 C1616.23178,362.085 1762.90663,4.6 989.474979,4.6 C473.848579,4.6 174.191879,91.4935 90.4889794,265.2858 L90.4863294,265.2858 Z" id="Path" fill="#3F196A"></path>
            <path d="M130.301279,255.13 C58.5712794,409.44 72.1362794,506.185 170.988779,545.365 C319.271279,604.135 671.856279,627.6425 819.236279,755.13 C966.611279,882.615 1415.97878,784.06 1492.83128,565.255 C1569.68378,346.45 1708.05628,9.2 978.403779,9.2 C491.963779,9.2 209.268779,91.175 130.303779,255.13 L130.301279,255.13 Z" id="Path" fill="#512E6B"></path>
            <path d="M170.116229,244.9742 C102.690029,390.0256 115.441129,480.9659 208.362479,517.7951 C347.748029,573.0389 679.177929,595.13595 817.715129,714.9742 C956.247629,834.8101 1378.65308,742.1684 1450.89443,536.4917 C1523.13578,330.815 1653.20593,13.8 967.332579,13.8 C510.078979,13.8 244.345679,90.8565 170.118579,244.9742 L170.116229,244.9742 Z" id="Path" fill="#62426B"></path>
            <path d="M209.931179,234.8184 C146.808779,370.6112 158.745979,455.7468 245.736179,490.2252 C376.224779,541.9428 686.499579,562.6294 816.193979,674.8184 C945.883979,787.0052 1341.32738,700.2768 1408.95758,507.7284 C1476.58778,315.18 1598.35558,18.4 956.261379,18.4 C528.194179,18.4 279.422579,90.538 209.933379,234.8184 L209.931179,234.8184 Z" id="Path" fill="#74576C"></path>
            <path d="M249.746129,224.6626 C190.927529,351.1968 202.050829,430.5277 283.109879,462.6553 C404.701529,510.8467 693.821229,530.12285 814.672829,634.6626 C935.520329,739.2003 1304.00168,658.3852 1367.02073,478.9651 C1430.03978,299.545 1543.50523,23 945.190179,23 C546.309379,23 314.499479,90.2195 249.748179,224.6626 L249.746129,224.6626 Z" id="Path" fill="#856B6D"></path>
            <path d="M289.561079,214.5068 C235.046279,331.7824 245.355679,405.3086 320.483579,435.0854 C433.178279,479.7506 701.142879,497.6163 813.151679,594.5068 C925.156679,691.3954 1266.67598,616.4936 1325.08388,450.2018 C1383.49178,283.91 1488.65488,27.6 934.118979,27.6 C564.424579,27.6 349.576379,89.901 289.562979,214.5068 L289.561079,214.5068 Z" id="Path" fill="#97806E"></path>
            <path d="M329.376029,204.351 C279.165029,312.368 288.660529,380.0895 357.857279,407.5155 C461.655029,448.6545 708.464529,465.10975 811.630529,554.351 C914.793029,643.5905 1229.35028,574.602 1283.14703,421.4385 C1336.94378,268.275 1433.80453,32.2 923.047779,32.2 C582.539779,32.2 384.653279,89.5825 329.377779,204.351 L329.376029,204.351 Z" id="Path" fill="#A8946E"></path>
            <path d="M369.190979,194.1952 C323.283779,292.9536 331.965379,354.8704 395.230979,379.9456 C490.131779,417.5584 715.786179,432.6032 810.109379,514.1952 C904.429379,595.7856 1192.02458,532.7104 1241.21018,392.6752 C1290.39578,252.64 1378.95418,36.8 911.976579,36.8 C600.654979,36.8 419.730179,89.264 369.192579,194.1952 L369.190979,194.1952 Z" id="Path" fill="#B9A86F"></path>
            <path d="M409.005929,184.0394 C367.402529,273.5392 375.270229,329.6513 432.604679,352.3757 C518.608529,386.4623 723.107829,400.09665 808.588229,474.0394 C894.065729,547.9807 1154.69888,490.8188 1199.27333,363.9119 C1243.84778,237.005 1324.10383,41.4 900.905379,41.4 C618.770179,41.4 454.807079,88.9455 409.007379,184.0394 L409.005929,184.0394 Z" id="Path" fill="#CBBD70"></path>
            <path d="M448.820879,173.8836 C411.521279,254.1248 418.575079,304.4322 469.978379,324.8058 C547.085279,355.3662 730.429479,367.5901 807.067079,433.8836 C883.702079,500.1758 1117.37318,448.9272 1157.33648,335.1486 C1197.29978,221.37 1269.25348,46 889.834179,46 C636.885379,46 489.883979,88.627 448.822179,173.8836 L448.820879,173.8836 Z" id="Path" fill="#DCD171"></path>
            <path d="M488.635829,163.7278 C455.640029,234.7104 461.879929,279.2131 507.352079,297.2359 C575.562029,324.2701 737.751129,335.08355 805.545929,393.7278 C873.338429,452.3709 1080.04748,407.0356 1115.39963,306.3853 C1150.75178,205.735 1214.40313,50.6 878.762979,50.6 C655.000579,50.6 524.960879,88.3085 488.636979,163.7278 L488.635829,163.7278 Z" id="Path" fill="#EEE671"></path>
        </g>
    </g>
</svg>